<?xml version="1.0" standalone="no"?>
<!DOCTYPE svg PUBLIC "-//W3C//DTD SVG 20010904//EN"
 "http://www.w3.org/TR/2001/REC-SVG-20010904/DTD/svg10.dtd">
<svg version="1.0" xmlns="http://www.w3.org/2000/svg"
 width="700.000000pt" height="700.000000pt" viewBox="0 0 700.000000 700.000000"
 preserveAspectRatio="xMidYMid meet">
<metadata>
Created by potrace 1.11, written by Peter Selinger 2001-2013
</metadata>
<g transform="translate(0.000000,700.000000) scale(0.100000,-0.100000)"
fill="#000000" stroke="none">
<path d="M2228 5732 c-59 -3 -67 -5 -72 -25 -3 -12 -19 -90 -37 -172 -17 -83
-33 -159 -35 -170 -3 -11 -7 -31 -10 -45 -3 -13 -12 -56 -20 -95 -16 -73 -17
-77 -34 -160 -6 -27 -13 -61 -16 -75 -3 -14 -7 -34 -9 -45 -3 -11 -36 -166
-74 -345 -38 -179 -72 -336 -75 -350 -2 -14 -11 -56 -20 -95 -9 -38 -18 -81
-20 -95 -3 -14 -7 -34 -10 -45 -3 -11 -14 -65 -25 -120 -11 -55 -41 -193 -65
-307 -25 -113 -47 -217 -50 -230 -2 -12 -28 -131 -56 -263 -28 -132 -53 -256
-56 -275 -3 -19 -8 -38 -10 -41 -2 -4 -13 -51 -24 -105 -11 -55 -29 -142 -40
-194 -11 -52 -31 -147 -45 -210 -13 -63 -49 -232 -80 -375 -30 -143 -58 -271
-60 -285 -3 -14 -20 -95 -39 -180 -19 -85 -33 -156 -31 -158 3 -4 2351 -1
2395 3 45 4 158 15 190 20 61 7 203 39 296 66 425 122 799 378 1099 750 50 63
127 177 183 271 202 344 344 791 387 1223 3 33 8 80 12 105 3 25 6 140 8 255
2 214 -10 365 -40 502 -9 40 -18 83 -21 97 -14 80 -112 320 -176 431 -46 80
-144 202 -229 286 -169 167 -375 286 -624 363 -175 54 -315 75 -540 82 -175 6
-1819 11 -1927 6z m1627 -1051 c314 -63 512 -286 568 -641 13 -86 15 -305 3
-415 -4 -33 -9 -80 -12 -105 -19 -165 -93 -419 -163 -561 -185 -372 -502 -605
-879 -644 -74 -8 -601 -10 -608 -2 -5 4 6 57 86 437 82 384 150 708 154 730 6
33 49 237 81 385 14 66 33 154 41 195 8 41 19 91 24 110 5 19 12 51 15 70 3
19 22 109 41 200 19 91 37 179 41 195 12 64 -4 61 285 59 157 0 287 -6 323
-13z"/>
</g>
</svg>
